<svg width="62" height="62" viewBox="0 0 321 321" fill="none" xmlns="http://www.w3.org/2000/svg">
    <path d="M64.9612 0.723755C44.0603 1.7868 24.8741 12.3658 12.5461 29.6146C5.85923 38.9763 1.60705 50.2926 0.28681 62.1919C-0.0389626 65.2438 -0.0389626 256.489 0.28681 259.541C2.56722 280.168 13.4549 298.12 30.6694 309.642C39.4138 315.488 49.4442 319.192 60.4175 320.615C62.7151 320.907 67.0359 320.924 160.035 320.924C239.249 320.924 257.596 320.889 259.139 320.701C274.862 318.815 288.578 312.351 299.586 301.652C310.182 291.313 317.178 277.922 319.475 263.571C320.401 257.844 320.35 263.656 320.35 160.695C320.35 70.2333 320.332 64.6094 320.041 62.1576C318.189 46.1947 311.828 32.6151 300.975 21.4875C295.179 15.555 289.59 11.4571 282.32 7.82214C273.696 3.50137 265.037 1.23813 255.024 0.723755C251.234 0.535126 68.9048 0.535126 64.9612 0.723755ZM258.367 13.4632C262.877 14.1147 265.551 14.732 269.238 15.9322C275.41 17.9382 281.085 20.9731 286.486 25.1738C288.887 27.0256 293.465 31.5349 295.419 33.9868C302.604 42.937 306.907 53.8418 307.747 65.1924C307.885 67.147 307.919 92.9516 307.885 162.581C307.816 250.3 307.799 257.45 307.525 259.267C305.57 272.607 300.375 283.151 291.287 292.204C283.383 300.091 273.284 305.458 262.448 307.55C256.67 308.647 265.414 308.562 162.693 308.63C99.1502 308.664 68.4418 308.63 66.1614 308.51C57.6228 308.047 50.2329 306.092 43.1002 302.423C25.8685 293.542 14.6037 276.962 12.6662 257.587C12.5461 256.386 12.4947 224.992 12.4947 160.849C12.4947 76.7487 12.529 65.5867 12.7519 63.3749C14.6722 45.0802 25.4913 28.8945 41.7799 19.9443C48.5183 16.2408 56.594 13.8575 64.3611 13.2574C65.407 13.1717 109.026 13.1202 161.321 13.1374C249.52 13.1717 256.533 13.1888 258.367 13.4632Z" fill="black"/>
    <path d="M174.695 59.037C157.566 61.0259 143.284 72.9938 138.277 89.591C137.711 91.4428 137.214 93.7232 136.785 96.3979C136.614 97.341 136.545 103.308 136.511 119.322L136.442 140.977L122.948 141.012L109.455 141.063L108.546 141.577C107.586 142.092 106.831 143.001 106.488 144.046C106.214 144.818 106.197 171.617 106.454 172.56C106.746 173.572 107.637 174.618 108.666 175.132L109.609 175.612H123.034H136.459V218.1V260.604L139.169 261.05C146.644 262.336 152.954 262.885 160.052 262.885C163.636 262.885 169.705 262.628 170.546 262.456L170.923 262.37V218.991V175.612L188.634 175.578L206.329 175.526L207.478 174.978C208.901 174.309 209.998 173.229 210.718 171.806C211.25 170.743 211.284 170.52 212.69 159.323C213.959 149.19 214.096 147.801 213.942 146.824C213.496 144.029 211.216 141.663 208.455 141.149C207.907 141.046 200.465 140.977 189.235 140.977H170.906L170.957 124.552L171.008 108.143L171.471 106.497C172.637 102.245 175.192 98.6612 178.707 96.3293C180.302 95.2663 181.553 94.6833 183.611 94.0318L185.068 93.5689L197.928 93.4831C211.987 93.3974 211.284 93.4488 212.553 92.3686C212.862 92.1115 213.307 91.5285 213.53 91.0656L213.959 90.2426V76.0286V61.8318L213.41 60.9059C213.033 60.2715 212.57 59.8085 212.004 59.4485L211.164 58.9341L193.573 58.917C183.902 58.8998 175.398 58.9512 174.695 59.037Z" fill="black"/>
</svg>
