<svg width="62" height="62" viewBox="0 0 321 321" fill="none" xmlns="http://www.w3.org/2000/svg">
    <path d="M64.6905 0.100403C64.3647 0.117523 63.1988 0.237549 62.1186 0.340424C45.4184 1.9007 29.1298 10.2851 17.8307 23.1273C7.52597 34.838 1.73065 48.8976 0.736184 64.5347C0.496142 68.3583 0.496142 252.094 0.736184 255.969C1.79923 272.926 8.8805 288.546 20.9512 300.514C30.8787 310.373 43.9096 317.111 57.5235 319.392C63.5074 320.403 55.3631 320.335 158.65 320.386C254.65 320.455 256.536 320.438 261.303 319.82C291.72 315.86 315.947 292.01 320.319 261.713C320.508 260.393 320.748 258.146 320.85 256.74C320.988 254.923 321.022 226.152 320.988 158.409L320.919 62.6487L320.542 59.9911C318.519 45.9485 313.392 34.3751 304.596 24.019C302.607 21.67 298.355 17.5035 295.989 15.566C284.981 6.54724 271.796 1.24918 257.685 0.151825C255.662 -0.00250244 66.3022 -0.0710754 64.6905 0.100403ZM260.411 12.977C264.235 13.6114 266.532 14.16 270.013 15.326C276.58 17.5035 282.169 20.5212 287.502 24.7734C289.919 26.7108 294.291 31.0831 296.229 33.5006C303.087 42.0907 307.219 52.3268 308.334 63.4031C308.454 64.6033 308.505 95.9975 308.505 160.14C308.505 264.542 308.574 257.186 307.477 262.656C305.248 273.749 299.967 283.574 291.96 291.547C285.65 297.822 278.123 302.417 269.704 305.161C266.344 306.241 263.549 306.892 259.297 307.527C257.445 307.801 251.461 307.835 162.594 307.887C92.9469 307.921 67.1595 307.887 65.2048 307.75C46.8587 306.395 30.3643 296.193 20.9512 280.368C17.0762 273.852 14.7615 267.131 13.4756 258.712C13.2013 256.86 13.167 251.219 13.1155 161.838C13.0812 94.0771 13.1155 66.2493 13.2527 64.5176C14.4701 48.8119 21.7914 34.8552 34.0507 24.8763C42.2807 18.1722 52.9112 13.8 63.6617 12.6855C64.4847 12.5998 107.504 12.5483 161.565 12.5655L258.011 12.5826L260.411 12.977Z" fill="black"/>
    <path d="M106.869 66.4207C101.297 67.1065 96.5302 68.5639 91.4722 71.1187C79.5729 77.1712 70.7599 88.5218 67.8794 101.484C66.7478 106.611 66.8335 102.033 66.8335 159.952C66.8335 202.011 66.885 212.693 67.0564 214.133C68.3081 224.215 72.5603 233.148 79.5215 240.349C81.9734 242.886 84.0995 244.653 87.0657 246.624C92.7924 250.448 98.8449 252.763 106.029 253.86C107.847 254.134 111.481 254.151 159.336 254.22C195.034 254.254 211.391 254.22 212.968 254.083C219.055 253.586 224.13 252.197 229.548 249.539C238.567 245.115 245.648 238.034 250.123 228.964C251.855 225.466 252.592 223.477 253.467 220.065C254.873 214.51 254.753 219.945 254.753 160.209C254.753 103.027 254.804 106.439 253.878 101.964C251.907 92.4653 246.351 83.1894 238.893 76.9312C232.257 71.3587 225.262 68.1696 216.14 66.5579C214.58 66.2835 210.876 66.2664 161.565 66.2321C119.334 66.1978 108.309 66.2492 106.869 66.4207ZM208.802 82.4693C223.29 83.7209 235.138 94.2485 238.018 108.428C238.721 111.943 238.738 112.852 238.687 161.752L238.636 208.732L238.224 210.875C237.247 216.139 235.464 220.357 232.429 224.643C231.074 226.564 227.011 230.593 225.005 232.016C220.701 235.051 215.094 237.194 209.745 237.794C208.596 237.931 193.73 237.966 159.679 237.931L111.241 237.88L109.132 237.4C103.269 236.097 98.2791 233.611 94.0612 229.924C88.7631 225.295 85.2311 219.174 83.6022 211.87L83.1221 209.761L83.0707 161.323C83.0364 127.272 83.0707 112.406 83.2079 111.257C83.8766 105.359 86.1398 99.7009 89.7062 95.0544C90.8892 93.4941 93.7526 90.5964 95.2957 89.3962C100.405 85.4012 106.372 83.0179 112.665 82.4693C115.031 82.2464 206.384 82.2464 208.802 82.4693Z" fill="black"/>
    <path d="M210.602 98.7581C209.145 99.0324 207.019 100.233 205.801 101.467C203.932 103.37 203.058 105.514 203.058 108.257C203.058 111.103 203.898 113.126 205.887 115.115C207.876 117.104 209.899 117.944 212.745 117.944C215.489 117.944 217.632 117.07 219.535 115.201C220.804 113.949 221.97 111.84 222.261 110.246C223.41 104.073 218.815 98.518 212.66 98.5866C211.957 98.6037 211.031 98.6723 210.602 98.7581Z" fill="black"/>
    <path d="M154.946 111.858C142.91 113.384 131.834 119.282 124.05 128.318C117.757 135.622 114.036 143.886 112.596 153.694C112.219 156.265 112.15 163.244 112.493 165.953C115.099 186.888 130.668 203.76 151.191 207.875C154.672 208.578 156.592 208.732 161.136 208.715C166.091 208.698 168.577 208.406 172.95 207.292C178.951 205.749 184.986 202.885 189.787 199.285C195.977 194.638 200.76 188.963 204.155 182.242C207.824 175.006 209.402 168.353 209.402 160.209C209.402 152.133 207.773 145.155 204.258 138.262C201.755 133.341 199.217 129.844 195.188 125.814C187.592 118.236 178.814 113.778 167.994 112.012C165.577 111.635 157.553 111.532 154.946 111.858ZM166.194 128.215C172.898 129.381 178.865 132.467 183.7 137.302C197.177 150.779 196.251 172.52 181.677 184.951C177.013 188.911 170.704 191.655 164.617 192.358C161.805 192.683 157.038 192.495 154.449 191.946C141.573 189.237 131.765 179.43 129.056 166.553C128.507 163.964 128.319 159.18 128.645 156.385C129.485 149.287 132.708 142.6 137.766 137.474C143.116 132.055 149.923 128.763 157.553 127.889C159.576 127.666 163.931 127.82 166.194 128.215Z" fill="black"/>
</svg>
