<svg width="62" height="62" viewBox="0 0 321 321" fill="none" xmlns="http://www.w3.org/2000/svg">
    <path d="M64.1209 0.180389C42.3285 1.56921 22.4049 13.3828 10.6771 31.8489C4.52174 41.5192 0.97254 52.2354 0.149536 63.6888C0.0123684 65.5063 -0.0219235 94.2772 0.0123684 162.021L0.080952 257.781L0.458162 260.438C2.48138 274.481 7.60801 286.054 16.4039 296.41C18.3928 298.759 22.645 302.926 25.0111 304.863C36.0874 313.933 49.3926 319.249 63.5037 320.277C65.3212 320.415 94.0406 320.449 161.836 320.415C267.489 320.346 258.161 320.449 264.282 319.334C284.995 315.562 302.964 302.206 312.737 283.328C316.663 275.767 318.892 268.377 320.041 259.169C320.315 257.112 320.332 248.95 320.401 162.535C320.435 95.5117 320.401 67.1866 320.264 64.8548C319.578 52.8183 316.012 41.7421 309.582 31.6774C299.243 15.5089 282.217 4.19254 263.477 1.03769C257.493 0.0260925 265.757 0.0946655 161.493 0.0603638C109.112 0.0603638 65.2869 0.0946655 64.1209 0.180389ZM256.087 12.6797C274.364 14.1714 290.687 24.339 300.049 40.0618C303.924 46.5772 306.238 53.2984 307.524 61.7171C307.799 63.5688 307.833 69.2098 307.884 158.677C307.919 225.478 307.884 254.351 307.747 255.98C306.873 267.039 303.015 277.155 296.397 285.831C288.218 296.565 276.439 304.023 263.236 306.801C262.122 307.024 260.27 307.367 259.139 307.538C257.167 307.83 252.863 307.847 160.121 307.847H63.1608L60.6746 307.452C56.8511 306.852 54.5364 306.286 50.9872 305.103C44.4203 302.926 38.8307 299.908 33.4983 295.656C31.0808 293.718 26.7086 289.346 24.7711 286.929C17.9298 278.339 13.7805 268.085 12.6661 257.026C12.546 255.826 12.4946 224.432 12.4946 160.289C12.4946 55.8875 12.426 63.243 13.5233 57.7735C15.7523 46.6801 21.0504 36.8383 29.0575 28.8827C38.745 19.2638 51.2272 13.6057 64.9611 12.6283C65.3897 12.594 108.066 12.5598 159.812 12.5426C223.578 12.5255 254.595 12.5598 256.087 12.6797Z" fill="black"/>
    <path d="M161.15 70.3929C160.412 70.7187 160.001 71.0787 159.624 71.7474C159.366 72.2275 159.349 77.1141 159.264 134.416C159.178 193.655 159.161 196.638 158.852 197.856C157.583 203.137 155.577 206.943 152.251 210.406C150.279 212.464 148.307 213.99 146.078 215.139C140.815 217.882 135.105 218.551 129.395 217.128C120.222 214.813 113.347 207.492 111.478 198.079C111.084 196.004 111.084 191.477 111.478 189.403C112.472 184.43 114.65 180.367 118.268 176.766C121.183 173.868 124.097 172.051 127.784 170.851C130.51 169.959 132.465 169.702 136.099 169.719C139.614 169.736 139.872 169.668 140.695 168.588L141.175 167.97L141.226 156.551C141.278 143.829 141.295 144.12 140.129 143.229C139.34 142.611 137.488 142.423 133.802 142.543C123.103 142.92 113.707 146.092 105.203 152.213C97.7955 157.546 91.3315 165.69 87.8509 174.109C82.6899 186.539 82.6899 200.925 87.8337 213.373C89.5655 217.522 92.4631 222.391 95.3951 226.061C97.1439 228.255 100.745 231.856 102.939 233.605C108.58 238.114 115.61 241.663 122.314 243.378C130.476 245.47 139.237 245.521 147.347 243.55C167.014 238.783 182.119 222.734 185.668 202.845C186.543 197.941 186.526 198.439 186.526 158.694V121.642L187.16 122.414C189.492 125.294 193.195 128.072 197.67 130.318C204.615 133.781 212.639 135.685 222.909 136.319C226.75 136.542 227.093 136.473 228.087 135.222L228.619 134.553L228.67 123.219C228.722 110.686 228.739 110.909 227.659 110C227.007 109.451 226.39 109.297 223.732 109.057C216.462 108.388 209.227 105.576 203.929 101.358C196.144 95.1516 190.846 85.2241 189.783 74.8337C189.458 71.7303 189.149 71.0444 187.829 70.4443C187.16 70.1357 186.423 70.1186 174.438 70.1357C163.516 70.1357 161.664 70.17 161.15 70.3929Z" fill="black"/>
</svg>
